<?xml version="1.0" standalone="no"?><!DOCTYPE svg PUBLIC "-//W3C//DTD SVG 1.1//EN" "http://www.w3.org/Graphics/SVG/1.1/DTD/svg11.dtd"><svg t="1746606487702" class="icon" viewBox="0 0 1024 1024" version="1.1" xmlns="http://www.w3.org/2000/svg" p-id="11625" xmlns:xlink="http://www.w3.org/1999/xlink" width="200" height="200"><path d="M420.747145 1001.615912L144.149793 842.408286C89.781921 811.114359 56.006 752.702496 56 689.970643V347.507446c-0.006-63.281852 32.135925-120.917717 85.979798-154.173639l271.925363-167.859607a170.329601 170.329601 0 0 1 175.363589-2.309994L891.898041 199.169793c46.659891 27.137936 76.107822 77.521818 76.099822 131.491692v360.867154c-0.008 58.655863-32.225924 112.961735-83.331805 141.735668l-300.349296 169.129604c-54.411872 29.123932-108.935745 28.739933-163.569617-0.779999z m23.965944-29.73593c36.567914 20.021953 74.995824 22.233948 115.913728 0.551999l310.759272-174.99159c35.945916-20.239953 58.279863-58.441863 58.281863-99.693766V324.3755c0.006-36.717914-19.711954-70.997834-51.453879-89.459791l-314.131264-182.659571c-42.8679-21.715949-84.763801-21.071951-124.533708 1.919995l-281.839339 173.971592c-39.691907 24.513943-63.385851 67.003843-63.379852 113.655734V696.138628c0.002 45.685893 24.599942 88.225793 64.19585 111.01574l286.187329 164.725614z m15.095965-883.21393L178.725712 262.181646c-27.801935 17.17196-44.399896 46.93589-44.395896 79.619813v354.339169c0.002 31.415926 16.91996 60.671858 44.151897 76.345821l286.183329 164.725614c23.475945 13.511968 52.729876 13.649968 76.339821 0.362l310.755272-174.98959a74.515825 74.515825 0 0 0 37.907911-64.839848V324.3735c0-22.527947-12.091972-43.555898-31.563926-54.879872l-312.599267-181.805574c-30.179929-15.131965-58.221864-14.811965-85.695799 0.977998zM302.043423 786.058418V237.939702h114.665732v199.651532h190.235554V237.939702h115.00973v548.118716h-115.00973V546.384979h-190.235554V786.058418h-114.665732z" fill="#FE4088" p-id="11626"></path></svg>